<svg width="181" height="256" viewBox="0 0 181 256" fill="none" xmlns="http://www.w3.org/2000/svg">
<path d="M48.2409 99.6199L3.47335 96.5309C2.70149 89.5807 2.31556 84.8185 2.31556 82.2444C2.31556 59.5918 10.2914 40.2856 26.2431 24.3258C42.452 8.1086 64.1926 0 91.4648 0C118.222 0 139.577 7.59377 155.529 22.7813C171.48 37.9688 179.456 56.6315 179.456 78.7692C179.456 110.689 163.376 136.559 131.215 156.38L82.5885 186.498C68.4378 194.992 59.9474 204.517 57.1173 215.071H181V256H0C0.51457 233.605 5.27434 214.041 14.2793 197.309C23.2843 180.577 38.3355 165.647 59.4328 152.519L100.727 126.649C122.082 113.263 132.759 97.5606 132.759 79.5415C132.759 68.4726 129.028 59.2057 121.567 51.7406C114.363 44.2755 104.072 40.543 90.693 40.543C76.5423 40.543 65.7363 44.9191 58.2751 53.6712C50.8138 62.1659 47.0832 73.2348 47.0832 86.8778L48.2409 99.6199Z" fill="#171717"/>
</svg>
