<svg width="781" height="200" viewBox="0 0 781 200" fill="none" xmlns="http://www.w3.org/2000/svg">
<g clip-path="url(#clip0_99_247)">
<path d="M489.187 109.109C489.187 94.6587 499.72 83.27 512.978 83.27C526.236 83.27 535.941 94.3525 535.941 109.109C535.941 123.865 526.082 135.284 512.978 135.284C499.873 135.284 489.187 123.712 489.187 109.109ZM443.566 149.398H462.182V69.126H443.566V149.398ZM440.658 42.3076C440.658 49.2265 446.322 54.829 452.966 54.829C459.61 54.829 465.091 49.1959 465.091 42.3076C465.091 35.8785 459.58 30.4291 452.966 30.4291C446.322 30.4291 440.658 35.8785 440.658 42.3076ZM367.664 108.925C367.664 94.475 378.349 83.2394 392.097 83.2394C405.845 83.2394 416.53 94.475 416.53 108.925C416.53 123.375 405.692 135.254 392.097 135.254C378.503 135.284 367.664 123.559 367.664 108.925ZM348.742 108.925C348.742 133.019 367.847 151.969 392.097 151.969C416.377 151.969 435.483 133.019 435.483 108.925C435.483 84.8314 416.683 66.5544 392.097 66.5544C367.511 66.5544 348.742 85.0151 348.742 108.925ZM298.405 149.398H317.021V107.333C317.021 90.6482 325.931 83.2394 340.811 83.2394C343.567 83.2394 345.649 83.3925 347.609 83.8823V67.6565C345.68 67.0136 342.281 66.5238 338.546 66.5238C313.316 66.5238 298.405 82.2597 298.405 107.303V149.398ZM223.789 109.109C223.789 94.6587 234.321 83.27 247.579 83.27C260.837 83.27 270.573 94.3525 270.573 109.109C270.573 123.865 260.714 135.284 247.579 135.284C234.474 135.284 223.789 123.712 223.789 109.109ZM204.867 109.109C204.867 132.376 223.636 151.969 245.803 151.969C255.019 151.969 263.439 148.265 268.461 142.173H269.257V149.398H287.873V24H269.257V75.7082H268.461C263.623 69.922 255.203 66.5544 245.803 66.5544C223.482 66.5544 204.867 85.9641 204.867 109.109ZM123.3 149.398H141.915V102.343C141.915 91.1074 149.509 83.2394 160.041 83.2394C170.574 83.2394 178.167 91.1074 178.167 102.343V149.398H196.783V102.343C196.783 82.7496 181.076 66.5238 160.041 66.5238C139.007 66.5238 123.3 82.7496 123.3 102.343V149.398ZM37.8747 101.241L57.9297 44.2363H58.9095L78.9644 101.241H37.8747ZM0 149.398H21.0347L31.5674 119.518H85.3024L95.8351 149.398H116.87L70.0545 24H46.754L0 149.398ZM511.202 151.969C520.418 151.969 528.838 148.265 533.859 142.173H534.656V149.398H553.271V24H534.656V75.7082H533.859C529.022 69.922 520.602 66.5544 511.202 66.5544C488.881 66.5544 470.265 85.9947 470.265 109.109C470.265 132.223 489.034 151.969 511.202 151.969Z" fill="#E8E6E3"/>
<path d="M768.763 24L728.959 137.734H726.785L686.981 24H674.367L720.447 152H723.968H731.806H735.297L781.377 24H768.763Z" fill="#E8E6E3"/>
<path d="M666.957 24H583.982V34.4702H620.264V151.939H630.705V34.4702H666.987V24H666.957Z" fill="#E8E6E3"/>
</g>
<defs>
<clipPath id="clip0_99_247">
<rect width="781" height="200" fill="white"/>
</clipPath>
</defs>
</svg>
