<svg width="600" height="400" viewBox="0 0 600 400" fill="none" xmlns="http://www.w3.org/2000/svg">
<path d="M600 400H0V0H600V400ZM529.687 234.577C533.118 218.4 526.555 211.558 509.999 214.055C455.87 245.133 397.745 255.395 335.624 244.839C313.263 238.876 291.7 231.103 270.937 221.518C267.249 221.596 263.81 222.529 260.624 224.316C253.854 237.607 257.604 246.935 271.874 252.301C335.928 281.543 401.553 285.275 468.749 263.495C490.745 257.059 511.057 247.418 529.687 234.577ZM162.188 111.443C169.375 78.4732 155.937 62.926 121.875 64.8018C115.198 68.6262 109.26 73.601 104.062 79.7266C94.8535 99.6482 99.541 115.507 118.125 127.302C137.294 133.516 151.982 128.23 162.188 111.443ZM485.625 64.8008C476.372 67.4265 469.185 73.0236 464.062 81.5918C457.509 99.3213 461.572 113.936 476.25 125.436C499.04 134.78 515.603 128.25 525.938 105.846C527.481 77.8385 514.042 64.1569 485.625 64.8008Z" fill="#FAFAFA"/>
</svg>
