<svg width="951" height="200" viewBox="0 0 951 200" fill="none" xmlns="http://www.w3.org/2000/svg">
<g clip-path="url(#clip0_99_248)">
<path fill-rule="evenodd" clip-rule="evenodd" d="M287.698 150.052C252.823 150.052 223.561 121.326 223.561 86.0637C223.561 50.8012 252.823 22.0752 287.698 22.0752C306.921 22.0752 320.701 29.6437 331.079 39.6205L318.83 52.0053C311.345 44.9529 301.477 39.4484 287.698 39.4484C262.179 39.4484 242.275 60.2619 242.275 85.8917C242.275 111.694 262.179 132.335 287.698 132.335C304.2 132.335 313.556 125.626 319.681 119.606C324.614 114.618 327.846 107.393 329.038 97.5885H287.698V80.0433H345.879C346.56 83.1395 346.73 86.9238 346.73 90.88C346.73 103.953 343.158 120.122 331.759 131.819C320.701 143.859 306.581 150.052 287.698 150.052ZM814.927 147.454V48.375H846.055V34.442H769.334V48.375H800.636V147.454H814.927ZM894.732 147.657H909.698L950.526 34.6447H934.542L902.728 126.327H902.047L871.424 34.6447H855.432L894.732 147.657ZM396.589 150.014C418.705 150.014 436.738 132.64 436.738 108.903C436.738 84.993 418.705 67.7918 396.589 67.7918C374.473 67.7918 356.44 84.993 356.44 108.903C356.44 132.468 374.473 150.014 396.589 150.014ZM396.589 83.961C408.838 83.961 419.216 94.1097 419.216 108.903C419.216 123.523 408.668 133.845 396.589 133.845C384.34 133.845 373.963 123.523 373.963 108.903C373.963 94.1097 384.51 83.961 396.589 83.961ZM526.727 108.904C526.727 132.641 508.694 150.015 486.578 150.015C464.462 150.015 446.428 132.47 446.428 108.904C446.428 84.9943 464.462 67.7931 486.578 67.7931C508.694 67.621 526.727 84.9943 526.727 108.904ZM509.204 108.904C509.204 94.1109 498.827 83.9622 486.578 83.9622C474.499 83.9622 463.951 94.1109 463.951 108.904C463.951 123.525 474.329 133.845 486.578 133.845C498.657 133.845 509.204 123.525 509.204 108.904ZM614.51 144.165V70.2H597.668V76.9085H596.987C592.904 72.0921 585.249 67.7918 575.552 67.7918C555.308 67.7918 536.594 85.8531 536.594 109.074C536.594 132.124 555.138 150.014 575.552 150.014C585.249 150.014 592.904 145.713 596.987 140.725H597.668V146.573C597.668 162.398 589.332 170.827 575.892 170.827C564.834 170.827 558.029 162.915 555.308 156.206L539.656 162.742C544.079 173.579 555.988 186.996 575.722 186.996C596.817 186.996 614.51 174.611 614.51 144.165ZM576.913 83.961C589.162 83.961 598.689 94.6256 598.689 109.074C598.689 123.352 589.162 133.845 576.913 133.845C564.664 133.845 554.287 123.352 554.287 109.074C554.287 94.6256 564.494 83.961 576.913 83.961ZM645.81 26.5015V147.598H627.947V26.5015H645.81ZM730.192 131.781L716.243 122.491C711.479 129.372 705.355 133.845 696.338 133.845C687.321 133.845 680.687 129.545 676.604 121.287L731.043 98.582L729.172 93.9376C725.769 84.821 715.391 67.7918 694.296 67.7918C673.372 67.7918 656.53 84.477 656.53 108.903C656.53 131.953 673.201 150.014 696.338 150.014C714.882 150.014 725.769 138.489 730.192 131.781ZM709.778 92.3895L673.372 107.699C673.031 91.7014 685.62 83.6169 694.637 83.6169C701.782 83.6169 707.737 87.2292 709.778 92.3895Z" fill="#E8E6E3"/>
<path d="M150.555 22H48.1186C39.2308 22 32 29.3271 32 38.3333V54.6667H156.882C165.77 54.6667 173 61.9938 173 71V44.7445C173 32.0747 162.908 22 150.555 22Z" fill="#4285F4"/>
<path d="M22.2804 22C10.0187 22 0 32.184 0 44.648V100.736C0 109.704 7.17757 117 16 117H32V38.264C32 29.296 39.1776 22 48 22H22.2804Z" fill="#34A853"/>
<path d="M22.4455 150H124.881C133.769 150 141 142.673 141 133.667V117.333H16.1186C7.23074 117.333 0 110.006 0 101V127.408C0 139.772 9.94227 150 22.4455 150Z" fill="#FBBC04"/>
<path d="M150.719 150C162.981 150 173 139.816 173 127.352V71.264C173 62.296 165.822 55 157 55H141V133.737C141 142.704 133.823 150 125 150H150.719Z" fill="#EA4335"/>
</g>
<defs>
<clipPath id="clip0_99_248">
<rect width="951" height="200" fill="white"/>
</clipPath>
</defs>
</svg>
