<svg width="806" height="200" viewBox="0 0 806 200" fill="none" xmlns="http://www.w3.org/2000/svg">
<g clip-path="url(#clip0_99_253)">
<path d="M193.854 24.0064H163.823L161.986 48.1088H200.64C200.64 48.1088 201.677 34.3872 201.792 32.0768C202.26 26.656 200.07 24 193.854 24V24.0064Z" fill="#C9C9C9"/>
<path d="M154.163 150.054H192.817L199.949 58.374H161.179L154.163 150.054Z" fill="#C9C9C9"/>
<path d="M102.391 68.0644H45.786L48.6604 32.0836C48.7756 24.3524 42.2201 24.0068 38.9936 24.0068H9.77561L0 150.055H39.5762L43.9486 94.2404H100.554L96.1813 150.055H135.642L145.309 24.0068H105.848L102.391 68.0644Z" fill="#C9C9C9"/>
<path d="M282.891 95.501H282.904L269.21 89.8498C259.543 86.0418 252.181 83.1618 253.449 79.1298C254.134 76.8194 258.621 75.3218 271.86 75.3218C292.686 75.3218 313.389 79.821 313.389 79.821L315.226 60.7938C315.226 60.7938 295.669 56.525 272.43 56.2946C261.842 56.1794 254.255 56.525 247.002 57.5618C234.576 59.2898 213.751 64.7106 212.714 82.0098C211.677 99.7698 232.732 107.501 245.619 112.8L256.323 117.069C268.519 121.914 274.267 123.757 274.037 127.335C273.807 131.373 265.407 131.949 253.903 131.603C233.654 130.912 212.259 126.989 212.259 126.989L210.992 147.399C210.992 147.399 226.523 149.939 257.469 150.739H262.872C285.42 150.739 312.922 147.168 315.905 128.371C318.671 111.072 300.489 103.463 282.884 95.501H282.891Z" fill="#C9C9C9"/>
<path d="M647.719 95.5068H647.732L633.923 89.7404C624.263 85.8172 616.894 82.9372 618.162 78.9052C618.853 76.71 623.334 75.2124 636.573 75.0972C657.398 75.0972 678.102 79.5964 678.102 79.5964L679.946 60.5692C679.946 60.5692 660.388 56.4156 637.143 56.07C626.554 55.9548 618.968 56.3004 611.715 57.3372C599.404 59.0652 578.464 64.486 577.427 81.7852C576.39 99.43 597.445 107.155 610.332 112.576L621.036 116.844C633.231 121.689 638.98 123.532 638.75 127.11C638.519 131.033 630.12 131.724 618.616 131.379C598.367 130.688 576.972 126.764 576.972 126.764L575.705 147.174C575.705 147.174 591.235 149.6 622.182 150.515C624.019 150.515 625.863 150.63 627.585 150.63C650.132 150.63 677.635 147.059 680.618 128.262C683.268 111.078 665.311 103.468 647.712 95.5068H647.719Z" fill="#C9C9C9"/>
<path d="M400.256 57.4462C396.921 56.979 393.233 56.6334 389.328 56.6334C348.254 56.2814 327.659 82.2334 325.937 103.68C324.324 123.168 331.692 152 391.978 152C414.18 152 428.334 148.659 434.435 146.931C435.127 142.893 436.388 134.477 437.425 128.019C434.435 128.595 416.369 132.518 396.697 132.518H394.859C367.472 131.481 361.954 118.105 361.954 111.878V111.533L440.767 111.648C448.584 67.4814 409.468 58.835 400.269 57.4462H400.256ZM409.916 94.1118H363.439C365.161 84.4286 372.645 74.6238 388.406 74.5086C411.414 74.739 409.923 94.1118 409.923 94.1118H409.916Z" fill="#C9C9C9"/>
<path d="M805 111.648C812.701 67.4814 773.707 58.835 764.502 57.4462C761.166 56.979 757.485 56.6334 753.567 56.6334C712.493 56.2814 692.014 82.2334 690.292 103.68C688.678 123.168 696.047 152 756.333 152C778.419 152 792.689 148.659 798.79 146.931C799.481 142.893 800.743 134.477 801.78 128.019C798.79 128.595 780.724 132.518 761.058 132.518H759.214C731.827 131.481 726.308 118.105 726.308 111.878V111.533L805 111.648ZM752.761 74.515C775.775 74.7454 774.277 94.1182 774.277 94.1182H727.793C729.522 84.435 736.999 74.6302 752.761 74.515Z" fill="#C9C9C9"/>
<path d="M533.952 57.6829C533.03 57.5613 526.244 56.9854 516.808 56.9854C514.388 56.9854 511.744 56.9854 509.1 57.1006C486.668 57.9134 458.135 61.2542 458.135 61.2542L452.495 149.824H488.505L492.878 77.9837C492.878 77.9837 505.765 76.1405 515.893 76.6013C519.343 76.7165 529.349 76.6014 528.549 89.747C527.512 106.009 524.753 149.939 524.753 149.939H560.878L564.79 88.819C566.518 61.0302 546.961 58.9501 533.959 57.6829H533.952Z" fill="#C9C9C9"/>
</g>
<defs>
<clipPath id="clip0_99_253">
<rect width="806" height="200" fill="white"/>
</clipPath>
</defs>
</svg>
