<svg width="425" height="200" viewBox="0 0 425 200" fill="none" xmlns="http://www.w3.org/2000/svg">
<path d="M244.297 125.073H305V150H215V22H244.297V125.073Z" fill="#E8E6E3"/>
<path d="M375.411 100.753H398.684V122.508C394.411 124.146 386.033 125.783 378.082 125.783C352.349 125.783 343.792 112.651 343.792 85.9837C343.792 60.5331 351.938 45.5565 377.648 45.5565C391.978 45.5565 400.108 50.0758 406.852 58.6938L424.63 42.2762C413.771 26.7156 394.824 22 377.03 22C337.031 21.9837 316 43.9138 316 85.7708C316 127.42 335.005 150 376.818 150C396.018 150 414.785 145.088 425 137.889V77.5675H375.411V100.753Z" fill="#E8E6E3"/>
<path d="M132.303 141.595C162.567 111.721 162.566 63.2838 132.299 33.4079C102.033 3.5319 52.9625 3.53053 22.6977 33.4048C-7.56712 63.279 -7.56573 111.716 22.7009 141.592C52.9674 171.469 102.038 171.469 132.303 141.595Z" fill="#A50034"/>
<path d="M95.9872 114.161H80.665V55H75V120H80.6777V119.961H96L95.9872 114.161Z" fill="#E8E6E3"/>
<path d="M136.13 89.8913H96.7091V84.1582H141.908C141.969 85.2685 142 86.3788 142 87.5022C142 122.022 113.343 150 78.0022 150C42.661 150 14 122.035 14 87.4978C14 52.9612 42.6523 25 77.9977 25C78.9307 25 79.8592 25.0187 80.7834 25.0562V30.746C79.8592 30.7057 78.9337 30.6856 78.0066 30.6856C45.8823 30.6856 19.8307 56.1237 19.8307 87.4978C19.8307 118.872 45.8779 144.314 78.0066 144.314C109.251 144.314 134.774 120.246 136.125 90.0511L136.13 89.8913Z" fill="#E8E6E3"/>
<path d="M54.0443 73C55.8224 72.9913 57.5581 72.456 59.0322 71.4618C60.5065 70.4675 61.6532 69.0588 62.3275 67.4137C63.0019 65.7683 63.1739 63.9601 62.8217 62.2171C62.4695 60.4742 61.6088 58.8747 60.3484 57.6204C59.088 56.3663 57.4842 55.5133 55.7397 55.1698C53.9951 54.826 52.1876 55.0069 50.5458 55.6893C48.9038 56.3718 47.5008 57.5253 46.5138 59.0044C45.5267 60.4835 45 62.2218 45 63.9999C45.003 65.1848 45.2392 66.3574 45.6952 67.451C46.1513 68.5445 46.8184 69.5374 47.6582 70.3732C48.4981 71.2089 49.4942 71.871 50.5899 72.3218C51.6856 72.7725 52.8595 73.003 54.0443 73Z" fill="#E8E6E3"/>
</svg>
