<svg width="104" height="128" viewBox="0 0 104 128" fill="none" xmlns="http://www.w3.org/2000/svg">
<g clip-path="url(#clip0_39_4241)">
<path d="M100.691 43.6352C99.9499 44.2112 86.8668 51.5968 86.8668 68.0192C86.8668 87.0144 103.514 93.7344 104.013 93.9008C103.936 94.3104 101.368 103.104 95.2354 112.064C89.7671 119.949 84.056 127.821 75.3681 127.821C66.6801 127.821 64.4442 122.765 54.4147 122.765C44.6408 122.765 41.1656 127.987 33.2187 127.987C25.2717 127.987 19.7268 120.691 13.3514 111.731C5.96658 101.21 0 84.864 0 69.3504C0 44.4672 16.1494 31.2704 32.0432 31.2704C40.4884 31.2704 47.5283 36.8256 52.8305 36.8256C57.8771 36.8256 65.7474 30.9376 75.3553 30.9376C78.9966 30.9376 92.0796 31.2704 100.691 43.6352ZM70.7941 20.4032C74.7676 15.68 77.5784 9.1264 77.5784 2.5728C77.5784 1.664 77.5017 0.7424 77.3356 0C70.8708 0.2432 63.1794 4.3136 58.5415 9.7024C54.9002 13.8496 51.5017 20.4032 51.5017 27.0464C51.5017 28.0448 51.6678 29.0432 51.7445 29.3632C52.1533 29.44 52.8177 29.5296 53.4821 29.5296C59.2826 29.5296 66.5779 25.6384 70.7941 20.4032Z" fill="#E8E6E3"/>
</g>
<defs>
<clipPath id="clip0_39_4241">
<rect width="104" height="128" fill="white"/>
</clipPath>
</defs>
</svg>
