<svg width="699" height="200" viewBox="0 0 699 200" fill="none" xmlns="http://www.w3.org/2000/svg">
<g clip-path="url(#clip0_99_252)">
<path d="M236.923 26.564V149.436H199.407V101.121H160.367V149.436H122.851V26.564H160.367V75.4003H199.407V26.564H236.923ZM367.469 124.757V26.564H329.953V149.436H397.771L403.422 124.757H367.429H367.469ZM302.216 26.564H264.7V149.436H302.216V26.564ZM454.326 26.564H416.809V149.436H454.326V26.564ZM639.345 57.933C639.345 51.2426 646.036 48.1578 656.82 48.1578C668.644 48.1578 681.472 50.7218 690.249 54.3274L687.16 27.6056C677.379 25.5624 668.644 24 652.733 24C622.43 24 601.828 35.9387 601.828 61.0179C601.828 104.205 660.427 95.4715 660.427 115.503C660.427 123.195 654.776 127.322 640.908 127.322C628.561 127.322 609.56 123.195 598.259 117.546L602.389 145.83C613.69 149.957 629.121 152 641.469 152C672.811 152 698.504 141.704 698.504 110.855C698.504 69.7515 639.382 77.4437 639.382 57.893L639.345 57.933ZM590.522 70.7931C590.522 102.162 568.399 120.15 533.487 120.15H520.14V149.436H482.624V26.564C495.49 25.0016 513.447 24 528.357 24C566.916 24 590.564 36.3393 590.564 70.7931H590.522ZM553.528 71.3139C553.528 55.8898 544.793 47.1562 526.273 47.1562C524.349 47.1562 522.304 47.1562 520.1 47.2764V98.0357H526.273C545.791 98.0357 553.528 87.2587 553.528 71.3139ZM107.94 70.7931C107.94 102.162 85.8548 120.15 50.9038 120.15H37.5566V149.436H0V26.564C12.8662 25.0016 30.8229 24 45.7332 24C84.2919 24 107.9 36.3393 107.9 70.7931H107.94ZM70.9047 71.3139C70.9047 55.8898 62.1667 47.1562 43.689 47.1562C41.7651 47.1562 39.721 47.1562 37.5165 47.2764V98.0357H43.689C63.2088 98.0357 70.9047 87.2587 70.9047 71.3139Z" fill="#E8E6E3"/>
</g>
<defs>
<clipPath id="clip0_99_252">
<rect width="699" height="128" fill="white" transform="translate(0 24)"/>
</clipPath>
</defs>
</svg>
