<svg width="809" height="200" viewBox="0 0 809 200" fill="none" xmlns="http://www.w3.org/2000/svg">
<path d="M0 120.204V111.089H31.0613V122.663C31.0122 124.164 31.2859 125.659 31.8641 127.045C32.4424 128.432 33.3115 129.678 34.4129 130.7C35.5143 131.722 36.8223 132.495 38.2485 132.968C39.6747 133.441 41.1858 133.603 42.6798 133.442C45.2274 133.761 47.8015 133.105 49.8853 131.606C51.9691 130.106 53.4083 127.874 53.9142 125.358C54.7461 122.437 54.6756 119.332 53.712 116.452C47.6871 100.944 6.61123 93.9036 1.40177 69.6644C0.337988 64.3333 0.271723 58.8513 1.20633 53.496C4.40748 34.04 21.04 27 41.6757 27C58.106 27 80.7634 30.9411 80.7634 57.0328V65.528H51.8924V58.0703C52.0019 56.6239 51.797 55.171 51.2916 53.8113C50.7863 52.4515 49.9926 51.2173 48.9649 50.1932C47.9373 49.1691 46.7001 48.3795 45.3383 47.8786C43.9765 47.3777 42.5224 47.1774 41.0759 47.2914C38.6117 47.0462 36.1462 47.7441 34.1764 49.2443C32.2066 50.7446 30.8791 52.9356 30.4615 55.3756C30.1378 57.4403 30.2064 59.5476 30.6637 61.5869C34.0333 75.4581 77.9531 82.9225 82.7582 107.984C83.9615 114.482 84.0276 121.141 82.9537 127.662C80.1434 147.542 62.9178 155 42.08 155C20.2178 155 0 146.916 0 120.204ZM376.301 119.787V110.678H406.958V122.07C406.884 123.561 407.134 125.05 407.691 126.434C408.248 127.819 409.099 129.067 410.185 130.091C411.27 131.115 412.565 131.893 413.98 132.369C415.395 132.845 416.896 133.009 418.381 132.849C420.9 133.203 423.46 132.587 425.543 131.126C427.626 129.666 429.076 127.469 429.602 124.981C430.432 122.128 430.364 119.089 429.406 116.277C423.59 100.957 382.905 93.9171 377.709 69.6779C376.646 64.4218 376.577 59.0131 377.507 53.7318C380.715 34.4712 397.347 27.4581 417.579 27.4581C433.814 27.4581 456.255 31.6013 456.255 57.2821V65.5684H427.6V58.2792C427.714 56.8491 427.519 55.4113 427.028 54.0632C426.538 52.7151 425.763 51.4883 424.756 50.4659C423.749 49.4436 422.534 48.6496 421.194 48.1379C419.853 47.6262 418.418 47.4087 416.986 47.5002C414.569 47.2157 412.136 47.8754 410.194 49.3417C408.253 50.8079 406.953 52.9673 406.567 55.3688C406.24 57.4331 406.306 59.5405 406.762 61.5802C409.963 75.4648 453.445 82.7137 458.27 107.566C459.472 113.995 459.538 120.584 458.466 127.035C455.662 146.923 438.632 154.171 417.997 154.171C396.343 154.171 376.301 146.094 376.301 119.787ZM486.104 124.145C485.822 121.528 485.754 118.892 485.901 116.263V30.5234H515.157V118.958C515.119 120.481 515.184 122.005 515.352 123.519C515.947 125.993 517.357 128.196 519.357 129.772C521.356 131.347 523.828 132.204 526.374 132.204C528.92 132.204 531.392 131.347 533.392 129.772C535.391 128.196 536.802 125.993 537.396 123.519C537.57 122.005 537.637 120.481 537.598 118.958V30.5234H566.854V116.263C566.854 118.547 566.651 122.892 566.651 124.139C564.63 146.498 547.613 153.781 526.378 153.781C505.142 153.781 488.112 146.505 486.104 124.139V124.145ZM726.958 122.899C726.665 120.287 726.532 117.659 726.561 115.03V64.7263C726.561 62.6514 726.756 58.9259 726.958 56.8509C729.56 34.4914 746.994 27.4446 767.637 27.4446C788.077 27.4446 806.104 34.4846 808.113 56.8509C808.353 59.4688 808.418 62.0998 808.308 64.7263V68.6606H779.06V62.0316C779.064 60.5025 778.931 58.9761 778.662 57.4707C777.953 54.9618 776.443 52.7529 774.363 51.1799C772.283 49.6068 769.746 48.7556 767.138 48.7556C764.53 48.7556 761.993 49.6068 759.913 51.1799C757.833 52.7529 756.323 54.9618 755.614 57.4707C755.276 59.312 755.143 61.185 755.216 63.0556V117.739C755.182 119.262 755.25 120.785 755.418 122.299C756.078 124.97 757.673 127.317 759.915 128.912C762.156 130.508 764.896 131.248 767.637 130.997C770.332 131.255 773.028 130.51 775.209 128.906C777.39 127.301 778.903 124.949 779.457 122.299C779.727 120.795 779.795 119.261 779.66 117.739V100.317H767.839V82.9158H808.713V115.017C808.742 117.646 808.607 120.274 808.308 122.885C806.286 144.632 788.09 152.299 767.63 152.299C747.17 152.299 728.96 144.639 726.958 122.899ZM319.233 150.028L318.397 39.4295L298.361 150.028H269.106L249.265 39.4295L248.47 150.028H219.613L222.012 30.7322H269.106L283.723 123.93L298.361 30.7322H345.448L348.05 150.028H319.233ZM165.341 150.028L149.686 39.4295L133.646 150.028H102.396L123.625 30.7322H175.127L196.369 150.028H165.341ZM655.05 148.789L625.97 49.5819L627.574 148.789H599.121V30.7322H642.003L669.257 126.833L667.646 30.7322H696.295V148.789H655.05Z" fill="#E8E6E3"/>
</svg>
