<svg width="600" height="400" viewBox="0 0 600 400" fill="none" xmlns="http://www.w3.org/2000/svg">
<g clip-path="url(#clip0_58_30)">
<path d="M416.946 3.16064C431.484 4.19682 444.814 5.52737 457.047 7.20982C496.792 12.6759 522.474 21.558 539.733 33.9813C572.418 57.5076 584.047 100.692 584.047 200C584.047 299.308 572.418 342.492 539.733 366.018C522.474 378.442 496.792 387.324 457.047 392.79C444.814 394.472 431.483 395.802 416.946 396.838V327.047C464.066 323.717 496.686 286.86 502.046 227.485H441.226C439.164 247.27 431.798 263.126 416.946 267.281V133.921C430.645 138.264 439.175 151.569 440.691 171.889H500.708C496.012 114.726 467.601 79.229 416.946 74.073V3.16064Z" fill="#FAFAFA"/>
<path d="M300.024 0C345.866 0 384.427 0.842907 416.946 3.16085V74.0732C412.693 73.6403 408.284 73.4209 403.718 73.4209C349.863 73.4209 307.532 121.985 307.532 200.024C307.533 278.397 346.113 327.294 409.88 327.294C412.27 327.294 414.626 327.211 416.946 327.047V396.838C384.427 399.156 345.866 400 300.024 400C249.734 400 208.206 398.985 173.804 396.122V324.335C181.87 326.287 190.493 327.294 199.633 327.294C250.539 327.294 286.173 289.784 291.8 227.485H230.981C228.569 250.597 218.924 268.349 198.561 268.349C187.455 268.349 179.483 264.552 173.804 258.187V143.978C179.605 136.26 187.154 132.369 196.15 132.369C215.977 132.369 228.569 146.769 230.444 171.889H290.459C285.368 109.927 252.415 73.421 193.472 73.4209C186.714 73.4209 180.138 74.1858 173.804 75.6773V3.87738C208.206 1.01387 249.734 0 300.024 0ZM406.396 132.369C410.185 132.369 413.71 132.895 416.946 133.921V267.281C414.449 267.98 411.74 268.349 408.808 268.349C376.657 268.349 370.762 236.531 370.762 202.703C370.762 156.146 384.16 132.369 406.396 132.369Z" fill="#FAFAFA"/>
<path d="M173.804 75.6774C129.661 86.0727 97.286 131.777 97.286 200.024C97.2861 267.162 125.6 312.668 173.804 324.335V396.122C162.829 395.208 152.578 394.107 143 392.79C103.255 387.324 77.5733 378.442 60.314 366.019C27.6297 342.492 16 299.308 16 200C16 100.692 27.6297 57.5078 60.314 33.9816C77.5733 21.5583 103.255 12.6762 143 7.21009C152.578 5.89282 162.829 4.79102 173.804 3.87744V75.6774ZM173.804 258.187C163.043 246.127 160.517 224.846 160.517 202.703C160.517 174.981 165.267 155.336 173.804 143.978V258.187Z" fill="#FAFAFA"/>
</g>
<defs>
<clipPath id="clip0_58_30">
<rect width="600" height="400" fill="white"/>
</clipPath>
</defs>
</svg>
